<?xml version="1.0" standalone="no"?>
<!DOCTYPE svg PUBLIC "-//W3C//DTD SVG 20010904//EN"
 "http://www.w3.org/TR/2001/REC-SVG-20010904/DTD/svg10.dtd">
<svg version="1.0" xmlns="http://www.w3.org/2000/svg"
 width="145.000000pt" height="145.000000pt" viewBox="0 0 145.000000 145.000000"
 preserveAspectRatio="xMidYMid meet">
<metadata>
Created by potrace 1.14, written by Peter Selinger 2001-2017
</metadata>
<g transform="translate(0.000000,145.000000) scale(0.100000,-0.100000)"
fill="#000000" stroke="none">
<path d="M996 1339 c-3 -19 -8 -47 -11 -64 -2 -16 -7 -41 -9 -55 -3 -14 -8
-43 -11 -65 -3 -22 -12 -78 -21 -123 -9 -46 -14 -86 -12 -88 2 -2 23 90 46
203 25 125 38 211 32 217 -5 5 -11 -5 -14 -25z"/>
<path d="M1006 1228 c-15 -73 -29 -140 -31 -149 -2 -9 -6 -32 -9 -50 -3 -19
-14 -74 -25 -124 -11 -49 -19 -90 -18 -91 4 -4 310 456 306 460 -6 6 -153 73
-176 80 -17 5 -22 -7 -47 -126z"/>
<path d="M1167 952 c-60 -92 -104 -162 -98 -157 9 9 104 140 141 195 8 12 32
45 53 73 42 57 42 57 25 57 -7 0 -62 -76 -121 -168z"/>
<path d="M1171 906 c-79 -108 -148 -193 -154 -189 -6 4 -7 1 -3 -6 5 -7 1 -20
-6 -29 -25 -29 -33 -46 -16 -36 37 23 438 306 442 312 2 4 -24 38 -58 75 l-62
68 -143 -195z"/>
<path d="M664 1050 c-53 -22 -65 -77 -40 -182 7 -32 12 -58 10 -58 -2 0 -27
32 -55 70 -28 39 -59 75 -69 80 -65 35 -150 -16 -150 -88 0 -32 12 -59 65
-138 63 -97 64 -99 46 -119 -10 -11 -22 -31 -26 -44 -4 -14 -16 -38 -26 -55
-24 -40 -24 -92 1 -136 11 -19 36 -66 56 -103 42 -78 105 -145 161 -173 28
-14 58 -19 113 -18 64 0 84 5 136 32 106 54 155 137 148 254 -4 65 -28 121
-82 193 -48 64 -62 99 -108 276 -37 145 -54 192 -75 205 -19 11 -82 14 -105 4z"/>
<path d="M51 812 c-17 -27 -31 -53 -31 -58 0 -5 52 -29 115 -53 63 -24 112
-48 109 -52 -3 -5 3 -6 12 -2 11 4 15 3 11 -4 -5 -7 1 -9 15 -5 14 3 19 1 14
-6 -4 -8 -2 -10 8 -6 8 3 28 -2 45 -11 17 -9 31 -11 31 -5 0 5 -3 10 -8 10 -4
0 -59 45 -122 101 -63 55 -127 109 -141 120 l-27 19 -31 -48z"/>
<path d="M12 720 c19 -12 139 -50 153 -49 12 0 -146 58 -160 58 -6 0 -3 -4 7
-9z"/>
<path d="M43 539 l-11 -51 59 4 c33 2 59 0 59 -4 0 -7 -76 -13 -102 -9 -5 0
-8 -3 -8 -8 0 -13 103 0 121 15 8 8 20 14 25 14 5 0 2 -5 -6 -10 -12 -8 -10
-10 8 -10 13 0 21 4 17 9 -3 6 20 10 56 10 72 -1 84 6 37 20 -59 17 -243 71
-244 71 -1 0 -6 -23 -11 -51z"/>
</g>
</svg>
