<?xml version="1.0" standalone="no"?>
<!DOCTYPE svg PUBLIC "-//W3C//DTD SVG 20010904//EN"
 "http://www.w3.org/TR/2001/REC-SVG-20010904/DTD/svg10.dtd">
<svg version="1.0" xmlns="http://www.w3.org/2000/svg"
 width="1097.000000pt" height="1097.000000pt" viewBox="0 0 1097.000000 1097.000000"
 preserveAspectRatio="xMidYMid meet">

<g transform="translate(0.000000,1097.000000) scale(0.100000,-0.100000)"
fill="#000000" stroke="none">
<path d="M5305 9509 c-98 -13 -303 -65 -410 -104 -582 -211 -1149 -717 -1630
-1455 -291 -445 -445 -787 -589 -1306 -136 -494 -189 -852 -190 -1279 0 -307
14 -443 69 -662 88 -350 217 -587 444 -813 268 -268 601 -430 1036 -505 199
-35 486 -29 900 16 1439 159 2802 983 3308 1999 142 286 219 617 203 870 -21
327 -108 565 -321 885 -221 333 -473 566 -794 735 -54 28 -90 54 -98 70 -7 14
-46 93 -86 176 -365 747 -871 1231 -1417 1355 -100 23 -322 32 -425 18z m1599
-2539 c57 -27 75 -60 65 -116 -5 -24 -42 -124 -83 -223 -136 -326 -162 -427
-132 -506 10 -24 15 -49 11 -55 -3 -5 -32 -10 -63 -10 -74 0 -130 30 -156 84
-18 38 -18 39 2 123 12 46 42 134 67 196 154 373 149 357 151 442 1 44 3 81 3
83 4 11 103 -2 135 -18z m328 -59 c30 -27 31 -30 19 -59 -31 -73 -154 -103
-210 -50 -29 26 -26 59 7 91 58 55 134 63 184 18z m-3379 -242 c23 -17 33 -18
65 -9 48 13 166 13 216 -1 21 -6 57 -28 80 -49 39 -37 41 -40 44 -112 3 -61 0
-84 -18 -126 -27 -62 -83 -116 -156 -148 l-54 -24 0 -77 c0 -193 107 -463 269
-682 69 -93 232 -247 327 -310 153 -101 317 -168 489 -198 134 -23 376 -13
511 20 173 44 316 110 459 213 93 66 122 75 149 48 33 -33 12 -69 -82 -142
-392 -303 -890 -389 -1339 -231 -359 127 -678 408 -862 759 -129 247 -208 583
-158 677 24 45 67 66 121 58 37 -6 47 -3 74 20 43 36 61 95 39 129 -28 42
-106 46 -150 8 -18 -16 -56 -91 -71 -139 -4 -13 -11 -23 -16 -23 -18 0 -50
-69 -50 -106 0 -36 -67 -231 -105 -304 -27 -52 -120 -92 -175 -75 -27 9 -25
25 9 93 110 218 251 613 251 703 0 25 6 41 18 49 23 14 81 3 115 -21z m3317
16 c11 -13 5 -30 -30 -103 -61 -127 -117 -270 -131 -339 -11 -52 -10 -67 5
-113 20 -62 15 -70 -52 -70 -88 0 -162 60 -162 131 0 42 35 154 99 319 23 58
41 110 41 116 0 18 43 52 80 62 56 16 136 14 150 -3z m-1128 -23 c6 -6 1 -26
-15 -58 -33 -66 -128 -291 -187 -445 -91 -238 -147 -319 -257 -375 -78 -39
-199 -47 -260 -15 -77 39 -117 114 -97 183 14 48 34 54 78 24 32 -21 50 -26
102 -26 34 0 74 4 87 9 40 16 92 74 135 153 42 77 115 267 127 331 7 36 7 37
-24 37 -42 0 -81 -21 -119 -64 -55 -63 -52 -136 5 -136 34 0 38 -23 13 -75
-27 -56 -83 -96 -143 -102 -53 -6 -81 7 -107 50 -52 85 12 276 126 376 83 73
216 116 289 94 31 -10 39 -9 63 11 15 13 41 28 57 34 34 13 112 9 127 -6z
m471 7 c49 -13 55 -31 23 -73 l-25 -34 22 -28 c18 -23 22 -41 22 -94 -1 -169
-143 -306 -331 -318 -95 -6 -156 11 -204 57 -69 65 -75 159 -19 277 49 104
146 178 274 210 63 15 188 17 238 3z m-1500 -40 c48 -13 77 -41 77 -75 l0 -26
31 26 c95 80 225 82 265 4 22 -43 10 -108 -48 -244 -23 -55 -56 -139 -73 -189
-28 -82 -34 -90 -59 -93 -62 -8 -126 44 -126 102 0 17 21 78 45 135 48 110 55
148 29 158 -51 19 -130 -75 -193 -229 -45 -111 -64 -128 -153 -135 -102 -8
-103 -2 -29 170 74 173 121 310 121 353 0 51 36 65 113 43z m-154 -28 c11 -7
2 -35 -44 -142 -116 -271 -144 -393 -110 -470 23 -49 14 -59 -55 -59 -65 0
-130 35 -153 82 -18 36 -18 41 -2 95 9 32 34 104 56 160 55 142 52 163 -19
144 -61 -17 -122 -91 -122 -150 0 -32 10 -42 44 -46 11 -1 25 -3 30 -4 14 -2
-3 -53 -32 -94 -43 -64 -129 -97 -186 -73 -44 18 -66 61 -66 125 0 62 11 92
53 141 17 21 41 62 52 91 38 97 175 167 306 156 38 -3 69 -2 69 3 0 4 19 17
43 29 43 21 111 28 136 12z m2309 -407 c37 -25 45 -50 27 -83 -27 -53 -93 -53
-120 -1 -12 22 -13 35 -5 50 11 21 49 50 65 50 6 0 21 -7 33 -16z m-2270 -638
c2 -86 1 -97 -14 -94 -13 2 -16 17 -15 91 0 48 0 92 1 98 0 6 6 9 13 7 8 -3
13 -35 15 -102z m297 91 c27 -21 11 -38 -23 -25 -39 15 -76 4 -90 -27 -17 -37
-15 -59 9 -89 21 -27 71 -36 84 -16 9 15 35 12 35 -3 0 -8 -11 -19 -25 -25
-44 -20 -75 -14 -111 22 -27 27 -34 42 -34 74 0 78 95 132 155 89z m285 -1 c0
-11 -14 -16 -47 -18 -41 -3 -48 -6 -51 -25 -3 -21 1 -23 42 -23 46 0 66 -12
44 -27 -7 -4 -29 -8 -48 -8 -32 0 -35 -2 -35 -30 0 -27 3 -30 29 -27 38 4 76
-5 76 -19 0 -6 -26 -9 -67 -7 l-68 3 -3 84 c-2 46 -1 90 2 98 8 19 126 18 126
-1z m365 1 c24 -18 11 -41 -15 -27 -33 18 -67 11 -89 -16 -28 -35 -26 -69 4
-99 28 -29 56 -32 89 -9 18 11 26 12 31 4 11 -19 -19 -41 -62 -47 -32 -4 -44
0 -71 22 -33 27 -49 77 -38 113 4 11 18 32 33 46 29 29 86 35 118 13z m273 -3
c28 -19 28 -51 1 -80 l-21 -23 21 -34 c25 -41 26 -47 7 -47 -8 0 -25 18 -37
40 -30 53 -49 52 -49 -1 0 -32 -3 -40 -16 -37 -15 3 -17 16 -15 93 1 49 5 93
7 97 9 14 79 9 102 -8z m292 1 c0 -11 -12 -15 -45 -15 -41 0 -45 -2 -45 -25 0
-22 4 -25 39 -25 41 0 63 -16 41 -30 -7 -5 -28 -6 -47 -3 -32 5 -33 5 -33 -29
0 -34 0 -34 47 -34 29 1 48 -4 51 -12 3 -10 -12 -12 -65 -10 l-68 3 -3 75 c-5
117 -3 120 68 120 47 0 60 -3 60 -15z m275 -72 c20 -49 39 -94 42 -100 8 -21
-23 -15 -38 6 -9 13 -27 20 -49 21 -53 3 -57 2 -63 -20 -5 -19 -37 -29 -37
-12 0 5 11 32 25 60 14 29 25 55 25 59 0 14 40 73 49 73 5 0 26 -39 46 -87z
m246 17 c25 -59 49 -89 49 -60 0 7 12 39 27 72 18 41 31 58 42 56 23 -5 30
-198 6 -198 -12 0 -15 14 -16 68 l-1 67 -31 -67 c-17 -38 -36 -68 -42 -68 -6
0 -22 26 -35 58 -33 83 -40 84 -40 9 0 -53 -3 -67 -15 -67 -12 0 -15 17 -15
93 0 52 3 97 7 101 18 17 40 -4 64 -64z"/>
<path d="M6255 6512 c-38 -23 -83 -106 -91 -166 -12 -86 40 -121 114 -76 58
36 106 171 82 230 -10 24 -18 30 -44 30 -17 0 -45 -8 -61 -18z"/>
<path d="M7090 6140 c0 -11 5 -20 10 -20 6 0 10 9 10 20 0 11 -4 20 -10 20 -5
0 -10 -9 -10 -20z"/>
<path d="M7161 6136 c-8 -10 -9 -16 -1 -21 5 -3 13 1 16 10 9 22 -1 29 -15 11z"/>
<path d="M7120 6106 c0 -9 7 -16 16 -16 17 0 14 22 -4 28 -7 2 -12 -3 -12 -12z"/>
<path d="M6040 5600 c0 -25 4 -30 24 -30 33 0 53 25 36 45 -7 8 -23 15 -36 15
-20 0 -24 -5 -24 -30z"/>
<path d="M6621 5587 c-17 -44 -14 -57 14 -57 28 0 30 11 11 55 l-14 30 -11
-28z"/>
<path d="M7129 2791 c-55 -56 -24 -161 48 -161 11 0 13 7 8 28 -4 20 0 36 15
55 46 59 109 17 136 -88 l6 -25 -353 0 -354 0 -24 51 c-58 127 -174 196 -231
139 -26 -26 -25 -53 4 -87 23 -27 25 -27 43 -10 33 29 63 21 110 -29 24 -26
43 -51 43 -55 0 -5 -208 -10 -462 -11 -429 -3 -463 -4 -466 -20 -2 -10 8 -29
22 -43 23 -23 33 -25 110 -25 76 0 86 -2 100 -22 24 -34 20 -90 -7 -116 -31
-29 -44 -28 -62 8 -28 55 -95 34 -95 -29 0 -12 17 -38 38 -59 21 -20 47 -59
57 -86 11 -27 36 -67 56 -88 31 -33 43 -39 70 -36 24 2 37 10 46 27 16 34 2
55 -38 57 -23 1 -42 11 -61 33 -15 17 -28 35 -28 39 0 4 19 16 42 27 23 11 51
32 62 47 26 37 26 105 -2 152 -12 21 -22 39 -22 42 0 2 38 4 85 4 l85 0 20
-32 c24 -39 27 -98 6 -98 -8 0 -18 5 -21 10 -9 15 -31 12 -49 -6 -26 -25 -19
-63 18 -100 44 -44 86 -46 127 -5 39 39 40 106 4 177 -14 27 -25 50 -25 52 0
1 31 2 70 2 64 0 70 -2 75 -22 2 -13 6 -101 7 -196 3 -169 4 -174 27 -193 13
-10 34 -19 46 -19 l24 0 -2 198 c-1 108 -6 205 -11 215 -7 15 -2 17 52 17 38
0 64 -5 69 -12 4 -7 8 -92 8 -190 0 -174 0 -177 25 -203 16 -17 33 -25 48 -23
l25 3 -2 194 c-1 107 -7 203 -12 213 -9 17 1 18 235 18 135 0 247 -3 249 -7 3
-5 7 -24 9 -43 l3 -35 -47 3 c-29 2 -58 -3 -78 -13 -30 -15 -34 -15 -74 4 -50
25 -75 26 -119 7 -47 -19 -67 -55 -67 -119 0 -65 36 -142 86 -187 62 -54 104
-34 55 27 -35 44 -57 117 -47 156 9 36 48 61 82 53 20 -5 24 -11 18 -24 -18
-41 -16 -87 6 -115 40 -50 90 -23 90 50 0 46 23 73 63 73 l27 0 0 -95 c0 -66
5 -105 15 -125 15 -28 51 -46 76 -38 14 5 13 372 -2 399 -15 28 -13 29 61 29
l70 0 0 -190 c0 -189 0 -191 25 -215 13 -14 34 -25 47 -25 l23 0 2 213 2 212
50 3 c46 3 51 5 51 26 0 33 -32 58 -84 63 -41 5 -45 8 -60 47 -22 58 -85 136
-126 158 -19 10 -54 18 -78 18 -35 0 -49 -6 -73 -29z"/>
<path d="M5146 2788 c-22 -31 -20 -52 8 -85 23 -27 25 -27 43 -10 23 20 51 21
76 2 21 -16 67 -75 67 -87 0 -4 -62 -9 -137 -10 -131 -3 -138 -4 -141 -24 -2
-11 7 -29 19 -40 18 -16 41 -20 143 -24 148 -6 156 -18 48 -70 -103 -51 -127
-77 -127 -143 0 -39 6 -60 23 -85 34 -47 117 -92 170 -92 59 0 67 -24 21 -62
l-34 -29 28 -25 c34 -29 60 -31 87 -4 24 24 26 77 4 108 -14 21 -14 24 5 48
12 15 21 35 21 46 0 30 -28 76 -50 83 -44 14 -88 -24 -75 -65 9 -28 -37 -38
-81 -17 -74 36 -50 102 54 149 37 16 77 39 90 51 23 21 30 71 12 82 -24 15 -6
25 44 25 63 0 72 9 54 47 -11 23 -23 30 -65 38 -50 10 -53 12 -83 70 -52 100
-106 145 -174 145 -25 0 -39 -6 -50 -22z"/>
<path d="M2757 2762 c-22 -25 -21 -44 4 -76 23 -29 60 -34 83 -10 24 23 19 60
-10 83 -33 26 -56 27 -77 3z"/>
<path d="M5819 2759 c-34 -34 3 -99 57 -99 35 0 59 41 43 72 -27 50 -66 61
-100 27z"/>
<path d="M2595 2590 c-13 -20 5 -61 31 -70 14 -6 61 -10 105 -10 l79 0 17 -34
c21 -46 8 -95 -31 -116 -25 -13 -29 -13 -34 -1 -3 8 -16 26 -29 39 -22 22 -26
23 -46 9 -13 -9 -23 -27 -25 -46 -3 -25 4 -39 33 -68 20 -20 45 -60 56 -88 26
-70 78 -125 117 -125 38 0 64 25 60 58 -2 20 -9 25 -36 27 -34 3 -92 47 -92
70 0 7 18 19 40 28 74 29 102 121 60 200 -11 20 -20 39 -20 42 0 3 35 5 78 5
70 0 81 -3 101 -24 29 -30 41 -106 18 -106 -9 0 -19 5 -22 10 -11 18 -44 10
-60 -14 -14 -21 -14 -28 -1 -59 26 -64 103 -86 153 -43 25 22 28 31 28 83 -1
46 -7 69 -28 106 l-28 47 70 0 c45 0 73 -4 78 -12 4 -7 8 -92 8 -190 0 -174 0
-177 25 -203 16 -17 33 -25 48 -23 l24 3 -1 193 c0 111 -5 201 -11 212 -9 18
-6 19 52 22 55 3 63 6 66 24 2 11 -7 29 -19 40 -20 18 -41 19 -439 22 -296 2
-420 0 -425 -8z"/>
<path d="M3605 2590 c-12 -20 4 -56 30 -68 17 -8 92 -12 214 -12 204 0 201 1
201 -56 l0 -24 -125 0 c-124 0 -125 0 -125 -23 0 -24 28 -57 48 -57 13 0 42
-39 42 -57 0 -19 -29 -43 -52 -43 -37 0 -86 48 -119 115 -17 36 -36 65 -40 65
-13 0 -22 -46 -14 -72 15 -50 68 -129 106 -159 54 -43 122 -51 162 -19 22 17
27 30 27 64 0 23 -7 51 -15 62 -23 31 -19 34 45 34 l60 0 0 -105 c0 -99 2
-107 25 -130 13 -14 34 -25 47 -25 l23 0 0 193 c0 105 -4 202 -9 215 -8 22 -7
22 68 22 73 0 77 -1 86 -26 16 -42 12 -94 -7 -101 -62 -22 -68 -67 -16 -123
29 -33 42 -40 66 -38 29 3 39 13 51 51 5 15 15 17 71 15 l66 -3 2 -79 c2 -72
5 -80 31 -103 16 -13 37 -23 48 -21 20 3 20 10 19 198 -1 107 -6 199 -12 204
-20 21 -6 27 59 24 l67 -3 5 -185 c3 -123 9 -192 18 -207 12 -23 50 -39 73
-31 14 5 13 372 -2 399 -14 27 -13 28 53 31 71 3 83 18 49 59 l-19 24 -650 3
c-460 2 -652 -1 -657 -8z m915 -106 c13 -33 13 -101 0 -106 -6 -2 -36 -1 -68
2 l-57 5 -3 45 c-2 25 -7 49 -13 55 -19 20 -7 25 61 25 66 0 71 -1 80 -26z"/>
<path d="M7615 2195 c-32 -31 -35 -89 -6 -105 50 -26 121 11 121 62 0 65 -69
90 -115 43z"/>
<path d="M7916 2194 c-68 -68 12 -153 88 -93 19 15 26 30 26 54 0 66 -65 88
-114 39z"/>
<path d="M8219 2191 c-33 -33 -36 -56 -13 -89 31 -45 115 -18 130 43 4 16 0
35 -10 50 -23 35 -69 34 -107 -4z"/>
</g>
</svg>
