<svg width="174" height="100" viewBox="0 0 174 100" fill="none" xmlns="http://www.w3.org/2000/svg">
<path fill-rule="evenodd" clip-rule="evenodd" d="M69.3264 43.4069L76.3875 0.0449219L77.978 0.54792L69.3264 43.4069Z" fill="white"/>
<path fill-rule="evenodd" clip-rule="evenodd" d="M26.4779 67.068L2.60474 68.2925L4.0751 60.2148L26.4779 67.068Z" fill="#fff261"/>
<path fill-rule="evenodd" clip-rule="evenodd" d="M74.095 57.1718L100.316 21.0449L110.01 31.7408L74.095 57.1718Z" fill="#fff261"/>
<path d="M37.6786 57.473H38.4572L37.9423 56.6967L30.214 45.0431C30.1701 44.9769 30.1265 44.9112 30.0832 44.846C29.5642 44.0646 29.0883 43.3481 28.683 42.5269C27.6717 40.4754 27.4624 38.448 27.9888 36.6805C28.5142 34.9167 29.7879 33.3582 31.845 32.2665L31.8451 32.2665C33.705 31.2793 35.7173 31 37.6574 31.746C39.8586 32.5928 40.9406 34.1824 42.226 36.0709C42.4543 36.4062 42.6889 36.7509 42.9374 37.1026L42.9374 37.1026C44.5034 39.3188 46.0926 41.5161 47.6942 43.7034L47.6944 43.7036C47.848 43.9132 48.0288 44.1669 48.2343 44.4568L49.1329 44.0716C48.628 41.4906 48.0873 38.9207 47.5466 36.3514C47.4207 35.7529 47.2948 35.1545 47.1693 34.5559L47.1693 34.5559C46.613 31.9026 46.5422 29.9508 48.0252 27.705L48.0252 27.7049C49.6165 25.2943 52.9417 24.1817 55.7538 24.6684C56.2982 24.7627 56.8266 24.9337 57.3248 25.1771C59.1262 26.058 60.1375 27.5023 60.8175 29.2198C61.3155 30.4775 61.621 31.8342 61.9305 33.2086C62.0516 33.7465 62.1733 34.287 62.3074 34.8254C62.9877 37.5575 63.6688 40.2902 64.362 43.0201L64.3621 43.0202C64.541 43.7244 64.717 44.4392 64.8942 45.1589C65.4011 47.2177 65.918 49.3167 66.5421 51.3247L37.6786 57.473ZM37.6786 57.473C35.5899 58.9168 34.2194 61.0712 34.1322 63.6072L34.1259 63.7916L34.0012 63.9277C31.6036 66.5456 30.6975 69.2826 30.9118 71.9836C31.1274 74.7007 32.4824 77.4454 34.7294 80.0445L34.7786 80.1015L34.8089 80.1703L36.1978 83.3301C36.1978 83.3301 36.1979 83.3301 36.1979 83.3301C38.084 87.6199 42.1426 93.1576 45.8799 95.8229M37.6786 57.473L45.8799 95.8229M78.9814 76.4362L78.4839 76.486C77.8645 70.2961 75.2805 66.5135 71.516 61.7276L71.5159 61.7274C70.9432 60.9988 70.3966 60.4153 69.8579 59.9509L69.7653 59.871L69.72 59.7574L69.579 59.4038L69.5789 59.4036C69.4097 58.9789 69.2378 58.5511 69.0648 58.1206C68.1724 55.9003 67.252 53.6103 66.5421 51.3247L78.9814 76.4362ZM78.9814 76.4362L78.4839 76.486C79.0118 81.7605 78.0206 86.6565 74.8207 90.8306C69.9291 97.2116 60.3399 100.844 52.5698 99.0357C49.9551 98.4271 48.1074 97.4109 45.8799 95.8229M78.9814 76.4362L45.8799 95.8229" fill="#292878" stroke="white"/>
<path fill-rule="evenodd" clip-rule="evenodd" d="M59.0696 81.2414C59.2802 83.8606 59.9545 85.3532 60.583 87.834C60.0837 87.8008 60.536 88.0277 60.0219 87.6195C55.8894 81.5742 56.1784 80.0661 57.9827 73.3605L56.1889 73.5227C55.8337 78.6343 56.1898 79.8361 50.7749 81.2277C48.2416 87.0155 42.1647 85.1169 39.9187 81.6274C41.6258 85.51 45.3248 90.3508 48.2164 92.4129C50.1877 93.8186 51.4892 94.5175 53.4776 94.9801C59.921 96.4798 67.8365 93.1906 71.6103 88.2679C73.9617 85.2007 74.8901 81.5157 74.4292 76.909C73.8964 71.5834 71.528 68.3873 68.3379 64.3314C66.7087 62.2604 66.0201 62.2024 62.7698 62.5946C60.0611 62.9216 51.8992 64.4054 49.7847 65.1202C48.229 65.6463 47.6296 65.5842 48.0919 67.075C48.4706 68.2973 49.1836 69.1841 50.0128 69.8794C54.769 73.8697 60.9404 70.5938 61.7073 71.2657C62.3703 72.3705 65.1647 77.8862 65.6496 79.0211C61.188 79.7112 60.8329 74.9852 60.3715 73.376C59.3764 73.4084 58.9603 79.872 59.0704 81.2419L59.0696 81.2414ZM47.6697 63.7092C50.5843 62.2861 57.6915 61.5576 61.4214 61.1233C64.0987 60.8117 63.4767 60.9557 65.8015 60.9695C62.3559 52.3184 62.6806 52.9782 60.415 44.0639C59.7125 41.2998 59.0352 38.5783 58.3553 35.8493C57.7489 33.4154 57.2945 29.1534 55.0711 28.7687C53.9981 28.583 52.1352 28.9221 51.4048 30.0278C50.6583 31.1583 50.8093 32.0384 51.1545 33.6848C51.948 37.4695 56.0931 56.2816 54.7264 57.4582C53.0101 58.9353 45.8654 48.1561 44.4273 46.192C42.7972 43.9659 41.2162 41.7798 39.6292 39.5342C37.9047 37.0937 36.7277 34.3624 33.7243 35.9561C30.0688 37.8958 32.4785 41.0428 33.5889 42.7104L42.9025 56.754C44.3642 58.8915 46.4187 61.546 47.6692 63.7087L47.6697 63.7092ZM42.0446 60.3575C39.2466 60.7045 37.1468 62.088 38.5854 65.5953C39.843 68.662 46.9027 76.6147 49.6528 77.8618C52.415 79.1142 53.7783 77.4731 54.4643 73.4048C45.6004 72.9998 45.6239 67.7757 45.9172 65.6237C45.7314 64.2166 42.8141 61.6732 42.0446 60.3575ZM35.2543 73.4988C36.2563 75.6216 37.8485 77.4935 39.3393 78.9205C40.8628 80.3786 42.704 81.7551 44.2227 82.2142C46.289 82.8386 48.9751 81.8694 49.265 79.5547C48.8815 79.135 47.2849 79.4138 46.7286 79.0256C44.0804 77.1749 37.3767 70.0035 37.0785 67.1154C35.7553 67.5621 33.0953 68.9244 35.2543 73.4992V73.4988ZM37.7101 67.3059C36.9801 66.2658 37.2226 66.611 37.7101 67.3059V67.3059Z" fill="#fff261"/>
<path fill-rule="evenodd" clip-rule="evenodd" d="M59.6001 85.617C58.9646 84.233 58.0252 82.7107 58.3486 79.0107C58.4509 77.8381 60.2843 72.6281 58.4148 73.3572C57.2935 77.8877 57.1233 82.8295 59.6001 85.617ZM58.2446 72.793C58.2807 72.6521 58.3021 72.5395 58.3029 72.4602L54.9339 72.9335C54.2675 77.6253 54.5839 79.0147 49.257 80.3836C48.3521 82.8282 46.6489 83.9272 43.79 83.8927C43.3577 83.8873 42.9599 83.8448 42.5904 83.7743C46.0834 85.0001 48.9262 83.9857 50.1689 80.6291C55.8876 79.1596 55.0066 77.948 55.7831 73.179L58.2446 72.793ZM39.4028 82.8215C39.0254 82.5658 38.6668 82.3314 38.3011 82.1581C40.0083 86.0407 43.7073 90.8815 46.5988 92.9435C48.5615 94.3431 49.8603 95.0419 51.8339 95.5046C50.3339 95.0424 49.1552 94.3617 47.5107 93.189C44.7219 91.2005 41.1827 86.6275 39.4033 82.8215H39.4028ZM65.0893 62.1516C64.2401 61.7598 63.215 61.8347 61.3133 62.0643C58.6046 62.3913 50.3169 63.3451 48.2024 64.0599C46.6467 64.5859 46.0116 66.1153 46.4739 67.6061C46.8526 68.8284 47.5656 69.7152 48.3948 70.4105C49.5739 71.3997 50.8401 71.9421 52.0898 72.2089C51.1422 71.8978 50.1994 71.405 49.3067 70.656C48.4779 69.9607 47.7649 69.0739 47.3858 67.8517C46.9235 66.3608 47.5586 64.8314 49.1143 64.3054C51.2288 63.5906 59.5165 62.6369 62.2252 62.3098C63.5067 62.1551 64.3898 62.0709 65.0893 62.1516ZM60.6234 71.9838C60.6978 73.5477 62.7432 79.0652 64.8699 78.7364C64.722 78.3903 61.5418 72.6162 61.1971 72.0418C61.0687 71.9293 61.0217 71.9279 60.6234 71.9838ZM46.053 64.2407C46.2393 64.1499 46.4425 64.0617 46.6611 63.9766C45.4005 61.9163 43.5467 59.5041 42.1982 57.532L32.8846 43.4884C31.7742 41.8207 29.3362 37.3491 32.9912 35.4094C33.675 35.0464 34.2644 34.9086 34.7867 34.9396C34.0546 34.5771 33.1923 34.5731 32.0793 35.1638C28.4239 37.1036 30.8623 41.5752 31.9727 43.2428L41.2863 57.2865C42.7479 59.4239 44.8024 62.0785 46.053 64.2411V64.2407ZM53.9641 27.548C53.7848 27.4478 53.5915 27.3773 53.3822 27.341C52.3092 27.1553 50.4462 27.4943 49.7158 28.6C48.9693 29.7306 49.1931 32.5695 49.5382 34.2159C50.3317 38.0006 54.0046 53.9286 52.6374 55.1052C52.5651 55.1677 52.482 55.2062 52.391 55.2266C52.8811 55.5133 53.2812 55.5811 53.5493 55.3507C54.9165 54.1741 51.2436 38.2461 50.4501 34.4614C50.105 32.815 49.8812 29.9761 50.6277 28.8456C51.2876 27.8458 52.8729 27.4731 53.9641 27.5475V27.548ZM40.5102 59.329C37.7122 59.676 35.5306 62.6196 36.9692 66.1268C38.5697 69.1581 45.3204 77.1427 48.0365 78.3934C48.3691 78.544 48.6995 78.6336 49.0233 78.6708C48.9985 78.6601 48.9737 78.6499 48.9484 78.6389C46.1984 77.3918 39.1386 69.4391 37.8811 66.3724C36.5509 63.1297 38.1845 60.2247 40.7866 59.6805C40.6939 59.559 40.6016 59.4416 40.5102 59.329ZM33.638 74.0299C34.64 76.1527 36.2323 78.0246 37.7231 79.4516C39.2466 80.9097 41.0878 82.2862 42.6065 82.7453C42.7936 82.802 42.9865 82.8454 43.1815 82.876C41.7329 82.3305 40.0475 81.0493 38.635 79.6972C37.1446 78.2706 35.5519 76.3986 34.5499 74.2754C32.7727 70.5102 33.3686 68.3914 35.6721 66.8793C35.6238 66.7787 35.4396 66.3365 35.3613 66.3564C34.2048 66.6493 31.3367 69.1532 33.638 74.0299Z" fill="white"/>
<path fill-rule="evenodd" clip-rule="evenodd" d="M29.693 59.7704L1.05005 47.998L6.47446 39.4355L29.693 59.7704Z" fill="#fff261"/>
<path fill-rule="evenodd" clip-rule="evenodd" d="M70.043 44.0397L79.0667 0.533203L94.3284 7.34562L70.043 44.0397Z" fill="#fff261"/>
<path fill-rule="evenodd" clip-rule="evenodd" d="M74.2776 55.4057L97.9323 18.6367L99.1646 19.7779L74.2776 55.4057Z" fill="white"/>
<path fill-rule="evenodd" clip-rule="evenodd" d="M29.4403 60.0899L0 50.4935L0.514932 49.3984L29.4403 60.0899Z" fill="white"/>
<path fill-rule="evenodd" clip-rule="evenodd" d="M26.4548 67.4043L2.79669 70.3918L2.76709 69.4509L26.4548 67.4043Z" fill="white"/>
<path d="M169.07 57.921C169.07 61.754 167.867 62.6235 165.81 62.6235C163.714 62.6235 162.55 61.7939 162.55 57.8816C162.55 53.6927 163.831 52.5471 165.81 52.5471C167.829 52.5471 169.07 53.6931 169.07 57.921ZM174 57.9999C174 51.9142 170.972 48.3184 165.81 48.3184C160.61 48.3184 157.582 51.9537 157.582 57.8811C157.582 59.7384 157.854 61.9118 158.902 62.623H153.779V67.1673H165.811C171.011 67.1673 174 64.0851 174 57.9994L174 57.9999ZM155.215 67.1678V62.6235H154.594C151.993 62.6235 150.247 61.5568 150.247 59.067C150.169 55.4711 150.169 48.7141 150.169 48.7141H145.395C145.395 48.7141 145.395 63.7301 145.395 63.8488C145.395 66.5358 145.551 69.8157 141.591 69.8157V74.2417C147.413 74.4393 150.169 70.211 150.169 65.9827C151.373 67.01 153.934 67.1682 154.594 67.1682H155.215V67.1678ZM135.071 57.4074C135.071 60.3713 133.674 62.6235 131.113 62.6235H123.816C125.019 59.067 127.387 53.5349 132.005 53.5349C134.062 53.5349 135.071 55.4317 135.071 57.4074ZM139.962 57.4862C139.962 53.9692 137.749 49.1484 132.122 49.1484C124.812 49.1484 121.918 57.0404 119.059 62.623H111.551V67.1673H131.113C138.254 67.1673 139.923 60.6075 139.962 57.4858V57.4862ZM98.8617 62.623H95.9893C93.9714 62.623 92.7291 60.3314 92.7291 58.0788C92.7291 56.1031 93.3115 53.0997 95.9893 53.0997H98.8617V62.623ZM112.328 67.1673V62.623H103.713V48.7531H95.7181C90.7503 48.7531 87.8779 51.7959 87.8779 58.0788C87.8779 64.7964 92.3413 67.1673 95.7181 67.1673C99.8711 67.1673 107.593 67.1673 112.328 67.1673Z" fill="white"/>
<path d="M168.256 45.2755V40.3359H163.326V45.2755H168.256Z" fill="white"/>
<path d="M98.0312 77.6974H92.0335V81.9497H97.5454V85.1144H92.0335V91.839H88.1965V74.5332H98.0307V77.6979L98.0312 77.6974ZM111.994 91.839H108.254V89.96H108.205C107.283 91.4185 106.044 92.1355 104.49 92.1355C101.674 92.1355 100.265 90.4049 100.265 86.9438V79.4777H104.004V86.5977C104.004 88.3526 104.684 89.2181 106.044 89.2181C106.724 89.2181 107.258 88.9708 107.647 88.5011C108.059 88.0313 108.254 87.3639 108.254 86.548V79.4777H111.994V91.839ZM123.066 82.914C122.629 82.6667 122.095 82.5435 121.488 82.5435C120.686 82.5435 120.055 82.84 119.594 83.4582C119.132 84.0512 118.89 84.8923 118.89 85.9302V91.839H115.15V79.4777H118.89V81.7768H118.938C119.545 80.0959 120.613 79.2552 122.143 79.2552C122.532 79.2552 122.848 79.3048 123.066 79.4037V82.9145V82.914Z" fill="white"/>
<path d="M168.349 86.8182V85.9779L166.139 86.2744C164.925 86.4229 164.318 86.9915 164.318 87.9554C164.318 88.3755 164.464 88.7464 164.755 89.0185C165.071 89.2902 165.46 89.4387 165.969 89.4387C166.674 89.4387 167.232 89.1914 167.693 88.6972C168.13 88.2026 168.349 87.5601 168.349 86.8182H168.349ZM171.87 91.8371H168.325V90.0569H168.276C167.475 91.4413 166.261 92.1336 164.658 92.1336C163.493 92.1336 162.545 91.7875 161.89 91.12C161.21 90.4278 160.87 89.5379 160.87 88.4007C160.87 86.0023 162.254 84.6183 165.046 84.2473L168.349 83.8024C168.349 82.4428 167.62 81.7749 166.188 81.7749C164.755 81.7749 163.371 82.195 162.06 83.0854V80.2176C162.594 79.9459 163.298 79.6986 164.197 79.4762C165.12 79.2781 165.945 79.1797 166.674 79.1797C170.146 79.1797 171.87 80.9346 171.87 84.4454V91.8375L171.87 91.8371ZM155.286 86.8182V85.9779L153.076 86.2744C151.862 86.4229 151.255 86.9915 151.255 87.9554C151.255 88.3755 151.401 88.7464 151.692 89.0185C152.007 89.2902 152.396 89.4387 152.906 89.4387C153.61 89.4387 154.168 89.1914 154.63 88.6972C155.067 88.2026 155.285 87.5601 155.285 86.8182H155.286ZM158.807 91.8371H155.261V90.0569H155.213C154.411 91.4413 153.197 92.1336 151.595 92.1336C150.429 92.1336 149.482 91.7875 148.826 91.12C148.146 90.4278 147.806 89.5379 147.806 88.4007C147.806 86.0023 149.191 84.6183 151.983 84.2473L155.285 83.8024C155.285 82.4428 154.557 81.7749 153.124 81.7749C151.691 81.7749 150.308 82.195 148.997 83.0854V80.2176C149.531 79.9459 150.234 79.6986 151.133 79.4762C152.056 79.2781 152.882 79.1797 153.61 79.1797C157.082 79.1797 158.806 80.9346 158.806 84.4454V91.8375L158.807 91.8371ZM142.222 86.8182V85.9779L140.013 86.2744C138.798 86.4229 138.192 86.9915 138.192 87.9554C138.192 88.3755 138.337 88.7464 138.629 89.0185C138.945 89.2902 139.333 89.4387 139.843 89.4387C140.547 89.4387 141.106 89.1914 141.567 88.6972C142.004 88.2026 142.223 87.5601 142.223 86.8182H142.222ZM145.743 91.8371H142.198V90.0569H142.149C141.348 91.4413 140.134 92.1336 138.531 92.1336C137.365 92.1336 136.418 91.7875 135.763 91.12C135.083 90.4278 134.743 89.5379 134.743 88.4007C134.743 86.0023 136.127 84.6183 138.919 84.2473L142.222 83.8024C142.222 82.4428 141.493 81.7749 140.061 81.7749C138.628 81.7749 137.244 82.195 135.933 83.0854V80.2176C136.467 79.9459 137.171 79.6986 138.07 79.4762C138.993 79.2781 139.818 79.1797 140.546 79.1797C144.019 79.1797 145.743 80.9346 145.743 84.4454V91.8375L145.743 91.8371Z" fill="white"/>
<path d="M124.156 91.5162V88.4256C124.787 88.7965 125.394 89.0686 126.001 89.2663C126.608 89.4391 127.191 89.5379 127.749 89.5379C128.405 89.5379 128.939 89.4391 129.303 89.2663C129.692 89.0686 129.886 88.7965 129.886 88.4256C129.886 88.1783 129.813 87.9806 129.619 87.8073C129.449 87.6589 129.231 87.5109 128.964 87.3872C128.697 87.2636 128.381 87.1647 128.065 87.0659C127.75 86.9671 127.434 86.8683 127.118 86.7446C126.657 86.5465 126.22 86.3489 125.856 86.1512C125.492 85.9287 125.176 85.6815 124.933 85.4098C124.69 85.1129 124.496 84.7916 124.35 84.4211C124.228 84.0501 124.156 83.6052 124.156 83.1106C124.156 82.4184 124.302 81.825 124.617 81.3304C124.908 80.8114 125.297 80.4157 125.783 80.0944C126.293 79.7731 126.851 79.5506 127.483 79.4022C128.114 79.2537 128.794 79.1797 129.474 79.1797C130.008 79.1797 130.567 79.2041 131.101 79.3033C131.659 79.3773 132.218 79.501 132.752 79.6743V82.6165C132.266 82.3196 131.756 82.1219 131.222 81.9734C130.688 81.8498 130.154 81.7758 129.619 81.7758C129.376 81.7758 129.158 81.8006 128.939 81.8254C128.721 81.8746 128.526 81.9491 128.357 82.0231C128.187 82.1219 128.065 82.2207 127.968 82.3444C127.871 82.4928 127.822 82.6409 127.822 82.8141C127.822 83.0366 127.895 83.2343 128.041 83.3827C128.186 83.5556 128.356 83.6792 128.599 83.8028C128.818 83.9265 129.085 84.0253 129.352 84.1241C129.643 84.1982 129.91 84.297 130.201 84.3963C130.687 84.5691 131.148 84.7672 131.561 84.9892C131.949 85.1873 132.289 85.4346 132.581 85.7063C132.872 86.0027 133.091 86.3245 133.261 86.695C133.407 87.0907 133.48 87.5357 133.48 88.0546C133.48 88.7965 133.334 89.4143 133.018 89.9337C132.703 90.4526 132.29 90.8732 131.78 91.1945C131.246 91.5158 130.663 91.7631 129.983 91.9116C129.303 92.06 128.599 92.134 127.871 92.134C126.535 92.134 125.297 91.9364 124.156 91.5162Z" fill="white"/>
<path d="M102.92 45.2755V40.3359H97.9911V45.2755H102.92ZM96.7528 45.2755V40.3359H91.8237V45.2755H96.7528Z" fill="white"/>
<path d="M116.999 59.6671V54.7031H112.293V67.1668H116.999V59.6671Z" fill="white"/>
</svg>
