<svg width="228" height="129" viewBox="0 0 228 129" fill="none" xmlns="http://www.w3.org/2000/svg">
<path fill-rule="evenodd" clip-rule="evenodd" d="M90.8418 55.9622L100.094 0L102.178 0.64916L90.8418 55.9622Z" fill="#FFCC29"/>
<path fill-rule="evenodd" clip-rule="evenodd" d="M34.6952 86.4989L3.41306 88.0792L5.33974 77.6543L34.6952 86.4989Z" fill="#FFF212"/>
<path fill-rule="evenodd" clip-rule="evenodd" d="M97.0901 73.7262L131.449 27.1016L144.152 40.9055L97.0901 73.7262Z" fill="#FFF212"/>
<path fill-rule="evenodd" clip-rule="evenodd" d="M49.1716 73.4715L39.0448 58.4316C38.3056 57.3334 37.5949 56.3062 36.9972 55.1131C34.2264 49.5778 35.7601 43.9744 41.4209 41.0158C43.9887 39.6734 46.8246 39.2685 49.5794 40.3117C53.2098 41.6872 54.703 44.5344 56.798 47.4547C58.8473 50.311 60.9274 53.1439 63.0246 55.9647C63.2294 56.2399 63.4689 56.571 63.7381 56.9451C62.9237 52.8436 62.0379 48.7651 61.1669 44.6728C60.4238 41.1816 60.2977 38.4534 62.383 35.3432C64.6387 31.9773 69.2798 30.4811 73.1685 31.1439C73.9431 31.2761 74.6948 31.5157 75.4032 31.8566C80.5097 34.316 81.0658 39.9308 82.2801 44.7323C83.1716 48.2583 84.0636 51.7838 84.9717 55.3053C85.8831 58.8382 86.7221 62.5147 87.8189 65.9904C88.9197 69.481 90.4095 72.9779 91.7812 76.3695L91.966 76.826C92.7109 77.4585 93.4558 78.2438 94.2258 79.2087C99.1754 85.4063 102.662 90.4103 103.493 98.5903C104.197 105.522 102.877 112.015 98.5611 117.56C92.0025 125.987 79.1802 130.779 68.7362 128.385C65.1983 127.574 62.6984 126.214 59.7382 124.136C54.723 120.613 49.3387 113.363 46.832 107.747L45.012 103.669C39.006 96.827 37.5721 88.9993 44.0703 82.0112C44.1952 78.432 46.1983 75.4293 49.1705 73.4715H49.1716Z" fill="#3E4095"/>
<path fill-rule="evenodd" clip-rule="evenodd" d="M77.4018 104.792C77.6778 108.172 78.5613 110.099 79.3849 113.3C78.7307 113.257 79.3233 113.55 78.6497 113.023C73.2347 105.222 73.6134 103.275 75.9776 94.6211L73.6271 94.8304C73.1617 101.427 73.6283 102.978 66.5329 104.774C63.2134 112.244 55.2506 109.794 52.3075 105.29C54.5445 110.301 59.3914 116.548 63.1803 119.21C65.7635 121.024 67.4689 121.926 70.0743 122.523C78.5174 124.458 88.8895 120.213 93.8345 113.86C96.9156 109.902 98.1322 105.146 97.5282 99.2007C96.8301 92.3276 93.7267 88.2027 89.5465 82.9682C87.4117 80.2955 86.5093 80.2206 82.2504 80.7268C78.7011 81.1489 68.0062 83.0637 65.2353 83.9863C63.1969 84.6652 62.4115 84.5851 63.0172 86.5092C63.5134 88.0866 64.4477 89.231 65.5342 90.1284C71.7666 95.2782 79.8532 91.0504 80.8582 91.9175C81.7268 93.3433 85.3886 100.462 86.024 101.927C80.1777 102.817 79.7123 96.7178 79.1077 94.6411C77.8039 94.6828 77.2586 103.025 77.4029 104.793L77.4018 104.792ZM62.464 82.1652C66.2831 80.3287 75.596 79.3884 80.4835 78.8279C83.9918 78.4258 83.1767 78.6117 86.223 78.6294C81.708 67.4644 82.1335 68.3161 79.1648 56.8114C78.2442 53.2441 77.3567 49.7318 76.4658 46.2097C75.6713 43.0686 75.0758 37.5682 72.1624 37.0717C70.7565 36.8321 68.3153 37.2696 67.3582 38.6966C66.3801 40.1557 66.578 41.2916 67.0303 43.4164C68.0701 48.3008 73.5016 72.5794 71.7107 74.0979C69.4617 76.0042 60.0998 62.0927 58.2153 59.5579C56.0793 56.685 54.0077 53.8635 51.9282 50.9655C49.6684 47.8158 48.1261 44.2909 44.1906 46.3476C39.4007 48.851 42.5583 52.9124 44.0133 55.0646L56.2173 73.1891C58.1326 75.9476 60.8247 79.3735 62.4634 82.1646L62.464 82.1652ZM55.0931 77.8396C51.4268 78.2874 48.6754 80.073 50.5605 84.5994C52.2082 88.5573 61.459 98.8209 65.0625 100.43C68.6821 102.047 70.4684 99.9287 71.3673 94.6783C59.7524 94.1555 59.7832 87.4134 60.1677 84.636C59.9241 82.8201 56.1015 79.5377 55.0931 77.8396ZM46.1955 94.7995C47.5084 97.5392 49.5948 99.9551 51.5483 101.797C53.5446 103.678 55.9572 105.455 57.9472 106.047C60.6548 106.853 64.1745 105.602 64.5543 102.615C64.0518 102.074 61.9598 102.433 61.2308 101.932C57.7607 99.5438 48.9766 90.2886 48.5859 86.5612C46.852 87.1377 43.3665 88.8959 46.1955 94.8001V94.7995ZM49.4135 86.8071C48.457 85.4648 48.7746 85.9103 49.4135 86.8071V86.8071Z" fill="#FFF212"/>
<path fill-rule="evenodd" clip-rule="evenodd" d="M78.097 110.436C77.2643 108.65 76.0334 106.685 76.4572 101.91C76.5913 100.397 78.9936 93.6728 76.5439 94.6136C75.0747 100.461 74.8517 106.838 78.097 110.436ZM76.3209 93.8855C76.3682 93.7037 76.3962 93.5584 76.3973 93.456L71.9827 94.0668C71.1095 100.122 71.5242 101.915 64.544 103.682C63.3583 106.837 61.1264 108.255 57.3803 108.211C56.8139 108.204 56.2926 108.149 55.8084 108.058C60.3855 109.64 64.1106 108.331 65.739 103.999C73.2324 102.102 72.078 100.538 73.0955 94.3837L76.3209 93.8855ZM51.6316 106.828C51.1371 106.498 50.6671 106.196 50.188 105.972C52.425 110.983 57.2719 117.23 61.0608 119.891C63.6326 121.698 65.3346 122.6 67.9206 123.197C65.9551 122.6 64.4106 121.722 62.2558 120.208C58.6014 117.642 53.9638 111.74 51.6322 106.828H51.6316ZM85.2899 80.1519C84.1771 79.6463 82.8339 79.743 80.342 80.0393C76.7926 80.4614 65.9329 81.6922 63.1621 82.6147C61.1236 83.2936 60.2914 85.2674 60.8971 87.1915C61.3934 88.7689 62.3276 89.9134 63.4142 90.8107C64.9593 92.0873 66.6185 92.7874 68.256 93.1317C67.0143 92.7302 65.7789 92.0942 64.6091 91.1276C63.5231 90.2302 62.5888 89.0858 62.0921 87.5083C61.4863 85.5843 62.3185 83.6105 64.357 82.9316C67.1278 82.009 77.9875 80.7782 81.5369 80.3561C83.216 80.1565 84.3733 80.0478 85.2899 80.1519ZM79.4379 92.8412C79.5355 94.8596 82.2156 101.98 85.0024 101.556C84.8085 101.109 80.6414 93.6573 80.1897 92.9161C80.0214 92.7708 79.9598 92.7691 79.4379 92.8412ZM60.3456 82.8481C60.5897 82.7309 60.8561 82.617 61.1424 82.5072C59.4906 79.8482 57.0615 76.7351 55.2945 74.19L43.0904 56.0655C41.6354 53.9133 38.4408 48.1423 43.2302 45.6389C44.1262 45.1705 44.8985 44.9926 45.5829 45.0326C44.6235 44.5648 43.4937 44.5596 42.0352 45.3221C37.2453 47.8255 40.4405 53.5964 41.8955 55.7487L54.0996 73.8731C56.0148 76.6316 58.707 80.0576 60.3456 82.8487V82.8481ZM70.712 35.4931C70.477 35.3639 70.2237 35.2729 69.9494 35.226C68.5434 34.9864 66.1023 35.4239 65.1452 36.8509C64.167 38.31 64.4602 41.9739 64.9125 44.0987C65.9523 48.9831 70.765 69.5395 68.9735 71.058C68.8788 71.1386 68.7699 71.1884 68.6507 71.2147C69.2929 71.5847 69.8171 71.6722 70.1684 71.3748C71.9599 69.8563 67.1472 49.2999 66.1074 44.4155C65.6551 42.2907 65.3619 38.6268 66.3401 37.1678C67.2048 35.8775 69.2821 35.3965 70.712 35.4926V35.4931ZM53.0826 76.5092C49.4163 76.957 46.5577 80.7559 48.4427 85.2823C50.5399 89.1944 59.3857 99.4992 62.9447 101.113C63.3805 101.308 63.8134 101.423 64.2378 101.471C64.2053 101.458 64.1727 101.444 64.1397 101.43C60.5361 99.8206 51.2854 89.557 49.6376 85.5992C47.8946 81.4142 50.0352 77.6651 53.4448 76.9628C53.3233 76.806 53.2024 76.6545 53.0826 76.5092ZM44.0777 95.4818C45.3907 98.2215 47.4771 100.637 49.4306 102.479C51.4268 104.361 53.8395 106.137 55.8295 106.73C56.0747 106.803 56.3274 106.859 56.5829 106.898C54.6848 106.194 52.4763 104.541 50.6255 102.796C48.6726 100.955 46.5856 98.5389 45.2726 95.7987C42.9438 90.9394 43.7247 88.205 46.743 86.2535C46.6797 86.1236 46.4384 85.5528 46.3358 85.5786C44.8203 85.9566 41.0622 89.1881 44.0777 95.4818Z" fill="#FFCC29"/>
<path fill-rule="evenodd" clip-rule="evenodd" d="M38.9079 77.0797L1.37572 61.8865L8.48359 50.8359L38.9079 77.0797Z" fill="#FFF212"/>
<path fill-rule="evenodd" clip-rule="evenodd" d="M91.7806 56.7776L103.605 0.628906L123.603 9.42088L91.7806 56.7776Z" fill="#FFF212"/>
<path fill-rule="evenodd" clip-rule="evenodd" d="M97.3296 71.4475L128.326 23.9941L129.94 25.4669L97.3296 71.4475Z" fill="#FFCC29"/>
<path fill-rule="evenodd" clip-rule="evenodd" d="M38.5771 77.4936L0 65.1086L0.67474 63.6953L38.5771 77.4936Z" fill="#FFCC29"/>
<path fill-rule="evenodd" clip-rule="evenodd" d="M34.665 86.9316L3.66459 90.7872L3.62581 89.5729L34.665 86.9316Z" fill="#FFCC29"/>
<path d="M221.541 74.6918C221.541 79.6386 219.965 80.7607 217.269 80.7607C214.523 80.7607 212.997 79.6901 212.997 74.6409C212.997 69.2348 214.676 67.7564 217.269 67.7564C219.914 67.7564 221.541 69.2354 221.541 74.6918ZM228 74.7936C228 66.9396 224.033 62.2988 217.269 62.2988C210.454 62.2988 206.488 66.9905 206.488 74.6403C206.488 77.0374 206.844 79.8422 208.217 80.7602H201.504V86.6249H217.27C224.084 86.6249 228.001 82.647 228.001 74.793L228 74.7936ZM203.385 86.6255V80.7607H202.571C199.164 80.7607 196.875 79.3841 196.875 76.1709C196.774 71.5301 196.774 62.8096 196.774 62.8096H190.519C190.519 62.8096 190.519 82.1889 190.519 82.3422C190.519 85.8099 190.722 90.0429 185.534 90.0429V95.7549C193.163 96.01 196.774 90.5531 196.774 85.0961C198.351 86.4219 201.707 86.6261 202.571 86.6261H203.385V86.6255ZM176.991 74.0289C176.991 77.8541 175.16 80.7607 171.803 80.7607H162.242C163.819 76.1709 166.921 69.0312 172.973 69.0312C175.669 69.0312 176.991 71.4792 176.991 74.0289ZM183.399 74.1307C183.399 69.5917 180.5 63.3701 173.125 63.3701C163.548 63.3701 159.755 73.5553 156.009 80.7602H146.171V86.6249H171.803C181.161 86.6249 183.348 78.1589 183.399 74.1301V74.1307ZM129.543 80.7602H125.779C123.135 80.7602 121.507 77.8026 121.507 74.8954C121.507 72.3457 122.271 68.4696 125.779 68.4696H129.543V80.7602ZM147.189 86.6249V80.7602H135.901V62.8599H125.424C118.915 62.8599 115.151 66.7869 115.151 74.8954C115.151 83.565 120.999 86.6249 125.424 86.6249C130.866 86.6249 140.984 86.6249 147.189 86.6249Z" fill="#3E4095"/>
<path d="M220.473 58.373V51.998H214.014V58.373H220.473Z" fill="#3E4095"/>
<path d="M128.455 100.217H120.596V105.704H127.818V109.789H120.596V118.467H115.568V96.1328H128.454V100.217L128.455 100.217ZM146.751 118.467H141.85V116.042H141.787C140.578 117.925 138.955 118.85 136.919 118.85C133.228 118.85 131.382 116.617 131.382 112.15V102.514H136.282V111.703C136.282 113.968 137.173 115.085 138.955 115.085C139.846 115.085 140.546 114.766 141.055 114.159C141.596 113.553 141.85 112.692 141.85 111.639V102.514H146.751V118.467ZM161.259 106.949C160.687 106.63 159.987 106.471 159.191 106.471C158.141 106.471 157.314 106.853 156.71 107.651C156.105 108.417 155.787 109.502 155.787 110.842V118.467H150.887V102.514H155.787V105.481H155.85C156.646 103.312 158.045 102.227 160.05 102.227C160.56 102.227 160.973 102.291 161.259 102.419V106.949V106.949Z" fill="#3E4095"/>
<path d="M220.596 111.989V110.905L217.7 111.287C216.11 111.479 215.314 112.213 215.314 113.457C215.314 113.999 215.505 114.477 215.887 114.829C216.3 115.179 216.809 115.371 217.477 115.371C218.4 115.371 219.132 115.052 219.737 114.414C220.309 113.776 220.596 112.946 220.596 111.989H220.596ZM225.21 118.466H220.564V116.169H220.5C219.45 117.956 217.86 118.849 215.759 118.849C214.232 118.849 212.991 118.402 212.132 117.541C211.241 116.647 210.796 115.499 210.796 114.031C210.796 110.936 212.609 109.15 216.268 108.671L220.596 108.097C220.596 106.342 219.641 105.48 217.764 105.48C215.886 105.48 214.073 106.022 212.355 107.171V103.47C213.055 103.12 213.977 102.801 215.155 102.513C216.364 102.258 217.446 102.131 218.4 102.131C222.95 102.131 225.209 104.396 225.209 108.927V118.467L225.21 118.466ZM203.478 111.989V110.905L200.583 111.287C198.992 111.479 198.196 112.213 198.196 113.457C198.196 113.999 198.387 114.477 198.769 114.829C199.182 115.179 199.692 115.371 200.36 115.371C201.282 115.371 202.014 115.052 202.619 114.414C203.191 113.776 203.478 112.946 203.478 111.989H203.478ZM208.092 118.466H203.446V116.169H203.383C202.332 117.956 200.742 118.849 198.642 118.849C197.114 118.849 195.873 118.402 195.014 117.541C194.123 116.647 193.678 115.499 193.678 114.031C193.678 110.936 195.492 109.15 199.15 108.671L203.478 108.097C203.478 106.342 202.523 105.48 200.646 105.48C198.768 105.48 196.955 106.022 195.237 107.171V103.47C195.937 103.12 196.859 102.801 198.037 102.513C199.246 102.258 200.328 102.131 201.282 102.131C205.832 102.131 208.091 104.396 208.091 108.927V118.467L208.092 118.466ZM186.361 111.989V110.905L183.465 111.287C181.874 111.479 181.079 112.213 181.079 113.457C181.079 113.999 181.27 114.477 181.652 114.829C182.066 115.179 182.574 115.371 183.243 115.371C184.166 115.371 184.898 115.052 185.502 114.414C186.075 113.776 186.361 112.946 186.361 111.989H186.361ZM190.974 118.466H186.329V116.169H186.265C185.215 117.956 183.624 118.849 181.524 118.849C179.996 118.849 178.755 118.402 177.896 117.541C177.005 116.647 176.56 115.499 176.56 114.031C176.56 110.936 178.374 109.15 182.033 108.671L186.36 108.097C186.36 106.342 185.405 105.48 183.528 105.48C181.651 105.48 179.837 106.022 178.119 107.171V103.47C178.819 103.12 179.742 102.801 180.919 102.513C182.128 102.258 183.21 102.131 184.165 102.131C188.714 102.131 190.974 104.396 190.974 108.927V118.467L190.974 118.466Z" fill="#3E4095"/>
<path d="M162.687 118.052V114.063C163.515 114.542 164.31 114.893 165.105 115.148C165.901 115.371 166.664 115.499 167.396 115.499C168.255 115.499 168.955 115.371 169.432 115.148C169.942 114.893 170.196 114.542 170.196 114.063C170.196 113.744 170.1 113.489 169.846 113.266C169.623 113.074 169.337 112.883 168.987 112.723C168.638 112.564 168.224 112.436 167.81 112.309C167.397 112.181 166.983 112.054 166.569 111.894C165.964 111.638 165.392 111.383 164.914 111.128C164.438 110.841 164.023 110.522 163.705 110.171C163.387 109.788 163.133 109.373 162.941 108.895C162.782 108.417 162.687 107.842 162.687 107.204C162.687 106.311 162.878 105.545 163.292 104.907C163.673 104.237 164.183 103.726 164.819 103.311C165.487 102.897 166.219 102.61 167.046 102.418C167.873 102.226 168.764 102.131 169.656 102.131C170.356 102.131 171.087 102.162 171.787 102.29C172.519 102.386 173.251 102.546 173.951 102.769V106.566C173.314 106.183 172.646 105.928 171.946 105.736C171.247 105.577 170.547 105.481 169.846 105.481C169.528 105.481 169.242 105.513 168.955 105.545C168.669 105.609 168.414 105.705 168.192 105.8C167.969 105.928 167.81 106.056 167.682 106.215C167.555 106.407 167.491 106.598 167.491 106.821C167.491 107.109 167.587 107.364 167.778 107.555C167.969 107.778 168.191 107.938 168.509 108.097C168.796 108.257 169.146 108.385 169.496 108.512C169.877 108.608 170.227 108.735 170.609 108.863C171.245 109.086 171.85 109.342 172.391 109.629C172.899 109.884 173.345 110.203 173.727 110.554C174.109 110.937 174.396 111.352 174.618 111.83C174.809 112.341 174.905 112.915 174.905 113.585C174.905 114.542 174.714 115.339 174.3 116.01C173.887 116.679 173.346 117.222 172.678 117.637C171.978 118.052 171.214 118.371 170.323 118.562C169.432 118.754 168.509 118.849 167.555 118.849C165.805 118.849 164.183 118.594 162.687 118.052Z" fill="#3E4095"/>
<path d="M134.861 58.373V51.998H128.403V58.373H134.861ZM126.78 58.373V51.998H120.321V58.373H126.78Z" fill="#3E4095"/>
<path d="M153.309 76.9474V70.541H147.144V86.6264H153.309V76.9474Z" fill="#3E4095"/>
</svg>
