<svg width="24" height="30" viewBox="0 0 24 30" fill="none" xmlns="http://www.w3.org/2000/svg">
<path d="M11.9999 0C7.89277 0 4.56209 3.33003 4.56209 7.43783C4.56209 11.5456 7.89277 14.8757 11.9999 14.8757C16.1086 14.8757 19.4377 11.5456 19.4377 7.43783C19.4377 3.33003 16.1086 0 11.9999 0ZM7.53739 7.43783C7.53739 4.97326 9.53502 2.9752 11.9999 2.9752C14.4648 2.9752 16.4627 4.97326 16.4627 7.43783C16.4627 9.90261 14.4648 11.9005 11.9999 11.9005C9.53502 11.9005 7.53739 9.90261 7.53739 7.43783Z" fill="black"/>
<path d="M11.8991 16.1917C5.32781 16.2908 0.0803107 21.6984 0.179375 28.2697C0.191776 29.0922 0.86814 29.7468 1.68917 29.7344L22.5125 29.4205C23.3351 29.4081 23.99 28.7334 23.9776 27.9109C23.8785 21.3396 18.4719 16.0926 11.8991 16.1917ZM11.9439 19.1663C16.366 19.0997 20.0852 22.2609 20.8568 26.4701L3.25523 26.7355C3.89957 22.5049 7.52191 19.233 11.9439 19.1663Z" fill="black"/>
</svg>
