<svg width="35" height="35" viewBox="0 0 35 35" fill="none" xmlns="http://www.w3.org/2000/svg">
<rect width="35" height="35" fill="#E5E5E5"/>
<rect width="1920" height="1192" transform="translate(-1853 -22)" fill="white"/>
<rect x="-1554" y="-22" width="1620" height="76" fill="#F3F3F3"/>
<rect x="0.5" y="0.5" width="34" height="34" rx="17" fill="white" stroke="#3E4095"/>
<path fill-rule="evenodd" clip-rule="evenodd" d="M18.5 9C18.5 8.44772 18.0523 8 17.5 8C16.9477 8 16.5 8.44772 16.5 9V9.75H15.9426C13.7175 9.75 11.8759 11.48 11.737 13.7007L11.516 17.2342C11.4318 18.5814 10.9795 19.8797 10.2084 20.9876C9.51172 21.9886 10.1319 23.3712 11.3429 23.5165L14.75 23.9254V25C14.75 26.5188 15.9812 27.75 17.5 27.75C19.0188 27.75 20.25 26.5188 20.25 25V23.9254L23.6571 23.5165C24.8681 23.3712 25.4883 21.9886 24.7916 20.9876C24.0205 19.8797 23.5682 18.5814 23.484 17.2342L23.263 13.7007C23.1241 11.48 21.2825 9.75 19.0574 9.75H18.5V9ZM15.9426 11.25C14.5096 11.25 13.3235 12.3642 13.2341 13.7944L13.0131 17.3278C12.9117 18.949 12.3674 20.5112 11.4396 21.8444C11.3892 21.9168 11.4341 22.0167 11.5216 22.0272L15.2593 22.4757C16.7477 22.6543 18.2523 22.6543 19.7407 22.4757L23.4784 22.0272C23.5659 22.0167 23.6108 21.9168 23.5604 21.8444C22.6326 20.5112 22.0883 18.949 21.9869 17.3278L21.7659 13.7944C21.6764 12.3642 20.4904 11.25 19.0574 11.25H15.9426ZM17.5 26.25C16.8096 26.25 16.25 25.6904 16.25 25V24.25H18.75V25C18.75 25.6904 18.1904 26.25 17.5 26.25Z" fill="#292878"/>
</svg>
