<svg width="31" height="30" viewBox="0 0 31 30" fill="none" xmlns="http://www.w3.org/2000/svg">
<g filter="url(#filter0_d_631_370728)">
<circle cx="15" cy="15" r="15" fill="#fff261"/>
<circle cx="15" cy="15" r="14.5" stroke="#292878"/>
</g>
<path d="M15.4346 18.5957H13.4365C13.4437 17.9082 13.5046 17.346 13.6191 16.9092C13.7409 16.4652 13.9378 16.0605 14.21 15.6953C14.4821 15.3301 14.8438 14.9147 15.2949 14.4492C15.6243 14.1126 15.9251 13.7975 16.1973 13.5039C16.4766 13.2031 16.7021 12.8809 16.874 12.5371C17.0459 12.1862 17.1318 11.7673 17.1318 11.2803C17.1318 10.7861 17.0423 10.36 16.8633 10.002C16.6914 9.64388 16.4336 9.36816 16.0898 9.1748C15.7533 8.98145 15.3343 8.88477 14.833 8.88477C14.4176 8.88477 14.0238 8.95996 13.6514 9.11035C13.279 9.26074 12.9782 9.49349 12.749 9.80859C12.5199 10.1165 12.4017 10.5212 12.3945 11.0225H10.4072C10.4215 10.2132 10.6221 9.51855 11.0088 8.93848C11.4027 8.3584 11.9326 7.91439 12.5986 7.60645C13.2646 7.2985 14.0094 7.14453 14.833 7.14453C15.7425 7.14453 16.516 7.30924 17.1533 7.63867C17.7979 7.9681 18.2884 8.44076 18.625 9.05664C18.9616 9.66536 19.1299 10.3887 19.1299 11.2266C19.1299 11.8711 18.9974 12.4655 18.7324 13.0098C18.4746 13.5469 18.1416 14.0518 17.7334 14.5244C17.3252 14.9971 16.8919 15.4482 16.4336 15.8779C16.0397 16.2432 15.7747 16.6549 15.6387 17.1133C15.5026 17.5716 15.4346 18.0658 15.4346 18.5957ZM13.3506 22.001C13.3506 21.6787 13.4508 21.4066 13.6514 21.1846C13.8519 20.9626 14.1419 20.8516 14.5215 20.8516C14.9082 20.8516 15.2018 20.9626 15.4023 21.1846C15.6029 21.4066 15.7031 21.6787 15.7031 22.001C15.7031 22.3089 15.6029 22.5739 15.4023 22.7959C15.2018 23.0179 14.9082 23.1289 14.5215 23.1289C14.1419 23.1289 13.8519 23.0179 13.6514 22.7959C13.4508 22.5739 13.3506 22.3089 13.3506 22.001Z" fill="#292878"/>
<defs>
<filter id="filter0_d_631_370728" x="0" y="0" width="31" height="30" filterUnits="userSpaceOnUse" color-interpolation-filters="sRGB">
<feFlood flood-opacity="0" result="BackgroundImageFix"/>
<feColorMatrix in="SourceAlpha" type="matrix" values="0 0 0 0 0 0 0 0 0 0 0 0 0 0 0 0 0 0 127 0" result="hardAlpha"/>
<feOffset dx="1"/>
<feComposite in2="hardAlpha" operator="out"/>
<feColorMatrix type="matrix" values="0 0 0 0 1 0 0 0 0 1 0 0 0 0 1 0 0 0 1 0"/>
<feBlend mode="normal" in2="BackgroundImageFix" result="effect1_dropShadow_631_370728"/>
<feBlend mode="normal" in="SourceGraphic" in2="effect1_dropShadow_631_370728" result="shape"/>
</filter>
</defs>
</svg>
